<?xml version="1.0" standalone="no"?>
<!DOCTYPE svg PUBLIC "-//W3C//DTD SVG 20010904//EN"
 "http://www.w3.org/TR/2001/REC-SVG-20010904/DTD/svg10.dtd">
<svg version="1.0" xmlns="http://www.w3.org/2000/svg"
 width="840.000000pt" height="840.000000pt" viewBox="0 0 840.000000 840.000000"
 preserveAspectRatio="xMidYMid meet">
<metadata>
Created by potrace 1.11, written by Peter Selinger 2001-2013
</metadata>
<g transform="translate(0.000000,840.000000) scale(0.100000,-0.100000)"
fill="#000000" stroke="none">
<path d="M3698 8395 c-2 -3 -49 -7 -103 -10 -55 -2 -129 -8 -165 -11 -36 -4
-81 -8 -100 -9 -47 -4 -136 -14 -185 -21 -22 -4 -51 -8 -65 -10 -121 -16 -203
-29 -250 -40 -14 -3 -36 -7 -50 -9 -21 -3 -194 -41 -225 -49 -5 -2 -23 -6 -40
-10 -16 -5 -61 -17 -100 -28 -38 -11 -74 -21 -80 -23 -5 -1 -17 -5 -25 -8 -8
-3 -46 -15 -85 -28 -38 -12 -95 -33 -125 -46 -30 -13 -57 -24 -60 -25 -7 -1
-36 -12 -83 -31 -20 -9 -41 -17 -45 -18 -4 -2 -36 -18 -72 -37 -36 -19 -92
-48 -125 -65 -33 -17 -74 -42 -91 -54 -17 -13 -34 -23 -37 -23 -6 0 -126 -79
-137 -90 -3 -3 -32 -25 -65 -50 -161 -119 -366 -337 -460 -489 -5 -9 -12 -18
-15 -21 -9 -8 -80 -128 -80 -134 0 -3 -13 -27 -28 -53 -72 -123 -185 -439
-206 -574 -3 -20 -8 -42 -10 -50 -3 -8 -7 -30 -10 -49 -3 -19 -8 -46 -10 -60
-10 -53 -17 -107 -24 -180 -8 -89 -7 -549 2 -635 14 -130 16 -153 32 -260 14
-95 15 -99 38 -225 3 -14 7 -36 10 -50 3 -14 8 -38 12 -55 14 -71 58 -248 86
-345 16 -58 31 -112 33 -120 17 -67 134 -404 184 -530 16 -41 39 -100 51 -130
11 -30 27 -68 34 -85 8 -16 37 -84 66 -150 65 -149 351 -726 370 -745 3 -3 16
-27 30 -55 14 -27 28 -52 31 -55 3 -3 19 -30 36 -60 17 -30 39 -71 51 -90 11
-19 30 -53 42 -75 12 -22 25 -42 29 -45 8 -6 71 -109 71 -116 0 -3 18 -32 40
-64 22 -32 40 -63 40 -68 0 -5 9 -17 20 -27 11 -10 20 -24 20 -31 0 -7 3 -14
8 -16 4 -1 27 -34 52 -73 25 -38 48 -71 52 -73 5 -2 8 -8 8 -13 0 -5 6 -17 14
-26 8 -10 56 -76 107 -148 51 -71 96 -131 101 -133 4 -2 8 -8 8 -14 0 -6 12
-25 28 -42 15 -18 38 -47 52 -66 51 -67 80 -105 93 -120 7 -8 28 -35 47 -60
19 -25 40 -49 46 -55 5 -5 30 -35 55 -65 24 -30 48 -60 54 -66 5 -6 33 -37 60
-69 28 -32 74 -83 103 -113 28 -30 52 -56 52 -58 0 -14 396 -393 448 -430 12
-8 34 -26 48 -39 14 -13 51 -43 82 -67 32 -24 63 -49 70 -56 7 -6 17 -12 22
-12 5 0 15 -6 22 -13 14 -13 88 -63 123 -83 142 -81 267 -135 350 -152 38 -8
202 -8 235 0 14 3 37 11 51 16 15 6 30 8 33 5 3 -4 6 -1 6 6 0 7 4 10 9 7 5
-4 22 0 38 8 15 8 71 36 123 61 52 26 114 60 138 76 24 16 45 29 47 29 12 0
255 180 324 240 9 8 44 37 76 65 104 86 145 125 350 330 189 189 228 230 350
370 28 32 62 71 78 87 15 16 27 31 27 34 0 3 10 15 23 28 12 13 29 32 37 42 8
11 33 41 55 69 22 27 47 58 55 68 8 11 20 24 25 31 6 6 24 29 40 51 33 44 55
72 70 89 16 17 196 263 243 331 23 33 69 98 102 145 33 47 63 92 67 100 7 15
43 70 53 80 7 7 29 43 37 60 4 8 9 17 12 20 4 3 36 52 71 110 130 211 180 298
180 310 0 5 4 10 8 10 5 0 23 28 41 63 18 34 46 86 62 115 81 149 113 208 120
222 4 8 26 56 50 105 24 50 48 93 54 97 5 4 7 8 3 8 -4 0 3 21 17 47 29 60 85
182 85 188 0 2 13 32 29 67 16 35 50 117 76 183 26 66 51 129 56 140 16 35
147 426 154 458 2 10 14 52 25 95 12 42 23 84 25 92 2 8 13 53 24 100 12 47
23 95 26 108 3 12 7 32 10 44 2 12 7 40 11 62 3 22 7 43 9 47 2 3 7 28 10 56
3 27 8 60 10 74 42 203 52 695 20 919 -2 14 -6 43 -9 65 -5 41 -12 78 -22 127
-3 15 -6 30 -6 33 1 15 -61 223 -88 300 -38 108 -135 309 -184 383 -20 30 -36
56 -36 59 0 2 -35 50 -77 106 -87 114 -277 308 -368 377 -33 25 -62 47 -65 50
-23 25 -335 220 -335 211 0 -2 -24 11 -53 28 -29 17 -54 31 -56 31 -2 0 -42
17 -88 38 -101 47 -118 54 -142 59 -11 2 -24 7 -30 12 -12 9 -150 60 -181 67
-11 2 -31 8 -45 13 -31 12 -144 44 -287 81 -74 19 -169 40 -207 46 -21 3 -47
8 -57 10 -52 11 -66 14 -99 19 -20 3 -47 7 -60 10 -13 3 -42 7 -65 10 -22 4
-53 8 -70 11 -16 3 -50 7 -75 10 -25 3 -58 7 -75 9 -16 1 -61 6 -100 10 -38 3
-83 8 -100 10 -30 4 -146 14 -265 22 -86 5 -907 13 -912 8z"/>
</g>
</svg>
